<svg width="255" height="259" viewBox="0 0 255 259" fill="none" xmlns="http://www.w3.org/2000/svg">
<g clip-path="url(#clip0_3_11)">
<path d="M252.794 129.642C252.794 199.499 196.216 256.13 126.425 256.13C56.632 256.13 0.0545044 199.499 0.0545044 129.642C0.0545044 59.7855 56.632 3.15469 126.425 3.15469C196.216 3.15469 252.794 59.7855 252.794 129.642Z" fill="#5E64FF"/>
<path d="M106.509 201.208H154.905V168.571H106.509V201.208Z" fill="#F9B095"/>
<path d="M141.81 196.891C141.67 196.891 141.53 196.889 141.392 196.889C133.539 196.826 125.534 195.069 118.247 192.178C114.248 190.587 109.906 188.446 106.509 185.451V168.571H154.905V195.579C150.602 196.34 146.171 196.891 141.81 196.891" fill="#E4A187"/>
<path d="M183.09 107.159C183.254 105.958 185.292 104.002 186.183 103.345C188.171 101.873 190.172 103.386 190.752 105.3C191.271 107.012 191.319 108.94 191.445 110.719C191.747 115.051 191.092 119.307 189.141 123.215C187.842 125.823 185.802 127.965 183.385 129.584C183.385 129.584 180.781 130.88 180.265 127.902L183.09 107.159" fill="#F9B095"/>
<path d="M182.675 109.762C182.793 108.904 184.249 107.505 184.889 107.031C186.309 105.98 187.743 107.062 188.158 108.433C188.528 109.658 188.567 111.036 188.653 112.31C188.871 115.411 188.402 118.454 187.009 121.25C186.075 123.116 184.614 124.651 182.885 125.809C182.885 125.809 181.023 126.735 180.651 124.603L182.675 109.762" fill="#DD9C83"/>
<path d="M77.0922 107.159C76.928 105.958 74.8899 104.002 73.9989 103.345C72.0115 101.873 70.0073 103.386 69.4278 105.3C68.9086 107.012 68.8627 108.94 68.7371 110.719C68.4329 115.051 69.0897 119.307 71.0384 123.215C72.3399 125.823 74.3804 127.965 76.7952 129.584C76.7952 129.584 79.4006 130.88 79.9174 127.902L77.0922 107.159" fill="#F9B095"/>
<path d="M77.5075 109.762C77.3892 108.904 75.9331 107.505 75.2932 107.031C73.8709 105.98 72.4365 107.062 72.0212 108.433C71.6517 109.658 71.6155 111.036 71.5262 112.31C71.3088 115.411 71.7797 118.454 73.173 121.25C74.1051 123.116 75.5661 124.651 77.295 125.809C77.295 125.809 79.1568 126.735 79.5287 124.603L77.5075 109.762Z" fill="#DD9C83"/>
<path d="M184.679 111.063C184.679 124.736 182.322 138.563 175.877 150.397C170.246 160.747 161.797 169.032 152.725 175.65C145.367 181.018 137.475 187.274 128.159 186.51C118.452 185.712 110.891 177.432 103.797 170.966C93.8216 161.878 85.9471 150.586 81.0959 137.304C78.1065 129.118 76.7325 119.875 76.7325 111.063C76.7325 66.8553 100.897 39.0498 130.707 39.0498C160.515 39.0498 184.679 66.8553 184.679 111.063" fill="#F9B095"/>
<path d="M215.216 215.966L154.905 200.178H106.509L46.198 215.966C46.198 215.966 18.2472 226.33 15.1419 259.139H130.707H246.269C243.164 226.33 215.216 215.966 215.216 215.966" fill="#F9B095"/>
<path d="M215.216 215.966L154.905 200.178H106.509L46.198 215.966C46.198 215.966 18.2472 226.33 15.1419 259.139H130.707H246.269C243.164 226.33 215.216 215.966 215.216 215.966" fill="white"/>
<path d="M91.2595 60.1843C91.2595 60.1843 109.365 87.1317 154.905 90.24C154.905 90.24 151.095 88.5118 146.61 76.7699C146.61 76.7699 161.468 89.5487 180.265 97.8367L184.594 106.608C184.594 106.608 184.56 102.132 188.704 102.92C188.704 102.92 192.157 67.7907 177.664 50.5187C177.664 50.5187 184.592 50.8643 189.064 54.6663C189.064 54.6663 182.496 40.8481 160.068 33.2514C160.068 33.2514 165.588 28.7606 175.595 31.8665C175.595 31.8665 162.354 25.6523 140.163 26.6868C140.163 26.6868 96.6396 24.9466 91.2595 60.1843" fill="#351F17"/>
<path d="M98.301 66.5919L76.8241 106.429C76.8241 106.429 74.9117 104.121 73.9989 103.345C73.9989 103.345 72.8954 48.6213 103.162 38.2595L98.301 66.5919Z" fill="#351F17"/>
<path d="M215.216 215.966L170.581 204.282L130.707 259.139L91.2595 204.171L46.198 215.966C46.198 215.966 18.2472 226.33 15.1419 259.139H130.707H246.269C243.164 226.33 215.216 215.966 215.216 215.966" fill="#393536"/>
<path d="M125.414 231.655L114.303 259.139H145.876L135.046 231.655H125.414Z" fill="#BE1A2C"/>
<path d="M129.978 200.717L115.832 219.713L125.665 231.73L130.477 231.653L135.295 231.573L144.732 219.241L129.978 200.717" fill="#BF1B2C"/>
<path d="M144.732 219.241L140.738 214.228L144.732 219.241Z" fill="#D3D2D2"/>
<path d="M125.665 231.73L115.832 219.713L129.393 201.505C127.802 205.696 124.945 209.385 123.88 213.815C122.789 218.361 124.962 222.833 129.683 223.872C130.163 223.979 130.63 224.027 131.084 224.027C134.942 224.027 137.811 220.426 139.429 217.221C139.919 216.251 140.349 215.248 140.738 214.228L144.732 219.241L135.295 231.573L125.665 231.73" fill="#9F1523"/>
<path d="M130.707 259.139L91.2595 204.171L59.7229 212.425L100.027 240.828L89.673 245.398L108.305 259.139H130.707" fill="#302D2E"/>
<path d="M130.707 259.214L170.152 204.246L201.688 212.5L161.386 240.903L171.738 245.473L153.104 259.214H130.707" fill="#302D2E"/>
<path d="M82.7717 201.334L106.427 190.227L130.54 200.309L154.656 190.227L179.931 201.334L144.196 225.284L130.54 205.708L115.832 225.284L82.7717 201.334" fill="#E5E4E4"/>
</g>
<defs>
<clipPath id="clip0_3_11">
<rect width="255" height="259" fill="white"/>
</clipPath>
</defs>
</svg>
